{"title":"The Janoskians - That's What She Said [Music Video] 720p [Sbyky]","uid":11141703,"size":54173602,"categoryP":"video","categoryS":"music_videos","magnet":"?xt=urn:btih:195e74b892dbc1d6f9eddf1847812bfbf8a9bf3a&amp;dn=The+Janoskians+-+That%27s+What+She+Said+%5BMusic+Video%5D+720p+%5BSbyky%5D&amp;tr=udp%3A%2F%2Ftracker.openbittorrent.com%3A80&amp;tr=udp%3A%2F%2Fopen.demonii.com%3A1337&amp;tr=udp%3A%2F%2Ftracker.coppersurfer.tk%3A6969&amp;tr=udp%3A%2F%2Fexodus.desync.com%3A6969","seeders":1,"leechers":0,"uploader":"Sbyky","files":1,"time":1412179360,"description":"General\nComplete name                            : The Janoskians - That's What She Said [Music Video] 720p [Sbyky].MP4\nFormat                                   : MPEG-4\nFormat profile                           : Base Media\nCodec ID                                 : isom\nFile size                                : 51.7 MiB\nDuration                                 : 3mn 11s\nOverall bit rate mode                    : Variable\nOverall bit rate                         : 2 262 Kbps\nEncoded date                             : UTC 2014-09-05 22:17:23\nTagged date                              : UTC 2014-09-05 22:17:23\n\nVideo\nID                                       : 1\nFormat                                   : AVC\nFormat/Info                              : Advanced Video Codec\nFormat profile                           : &lt;a class=&quot;__cf_email__&quot; href=&quot;/cdn-cgi/l/email-protection&quot; data-cfemail=&quot;5a173b33341a1669746b&quot;&gt;[email&amp;#160;protected]&lt;/a&gt;&lt;script cf-hash='f9e31' type=&quot;text/javascript&quot;&gt;\n/* &lt;![CDATA[ */!function(){try{var t=&quot;currentScript&quot;in document?document.currentScript:function(){for(var t=document.getElementsByTagName(&quot;script&quot;),e=t.length;e--;)if(t[e].getAttribute(&quot;cf-hash&quot;))return t[e]}();if(t&amp;&amp;t.previousSibling){var e,r,n,i,c=t.previousSibling,a=c.getAttribute(&quot;data-cfemail&quot;);if(a){for(e=&quot;&quot;,r=parseInt(a.substr(0,2),16),n=2;a.length-n;n+=2)i=parseInt(a.substr(n,2),16)^r,e+=String.fromCharCode(i);e=document.createTextNode(e),c.parentNode.replaceChild(e,c)}}}catch(u){}}();/* ]]&gt; */&lt;/script&gt;\nFormat settings, CABAC                   : Yes\nFormat settings, ReFrames                : 3 frames\nCodec ID                                 : avc1\nCodec ID/Info                            : Advanced Video Coding\nDuration                                 : 3mn 11s\nBit rate                                 : 2 132 Kbps\nWidth                                    : 1 280 pixels\nHeight                                   : 720 pixels\nDisplay aspect ratio                     : 16:9\nFrame rate mode                          : Variable\nFrame rate                               : 23.976 fps\nMinimum frame rate                       : 23.974 fps\nMaximum frame rate                       : 23.981 fps\nColor space                              : YUV\nChroma subsampling                       : 4:2:0\nBit depth                                : 8 bits\nScan type                                : Progressive\nBits/(Pixel*Frame)                       : 0.096\nStream size                              : 48.7 MiB (94%)\nEncoded date                             : UTC 2014-09-05 22:17:23\nTagged date                              : UTC 2014-09-05 22:17:23\n\nAudio\nID                                       : 2\nFormat                                   : AAC\nFormat/Info                              : Advanced Audio Codec\nFormat profile                           : LC\nCodec ID                                 : 40\nDuration                                 : 3mn 11s\nBit rate mode                            : Variable\nBit rate                                 : 126 Kbps\nChannel(s)                               : 2 channels\nChannel positions                        : Front: L R\nSampling rate                            : 44.1 KHz\nCompression mode                         : Lossy\nStream size                              : 2.87 MiB (6%)\nEncoded date                             : UTC 2014-09-05 22:14:24\nTagged date                              : UTC 2014-09-05 22:14:24\n\nShared By Sbyky\n","torrent":{"xt":"urn:btih:195e74b892dbc1d6f9eddf1847812bfbf8a9bf3a","amp;dn":"The+Janoskians+-+That%27s+What+She+Said+%5BMusic+Video%5D+720p+%5BSbyky%5D","amp;tr":["udp%3A%2F%2Ftracker.openbittorrent.com%3A80","udp%3A%2F%2Fopen.demonii.com%3A1337","udp%3A%2F%2Ftracker.coppersurfer.tk%3A6969","udp%3A%2F%2Fexodus.desync.com%3A6969"],"infoHash":"195e74b892dbc1d6f9eddf1847812bfbf8a9bf3a","infoHashBuffer":{"type":"Buffer","data":[25,94,116,184,146,219,193,214,249,237,223,24,71,129,43,251,248,169,191,58]},"announce":[],"urlList":[]}}